<?xml version="1.0" standalone="no"?>
<!DOCTYPE svg PUBLIC "-//W3C//DTD SVG 20010904//EN"
 "http://www.w3.org/TR/2001/REC-SVG-20010904/DTD/svg10.dtd">
<svg version="1.0" xmlns="http://www.w3.org/2000/svg"
 width="1414.000000pt" height="699.000000pt" viewBox="0 0 1414.000000 699.000000"
 preserveAspectRatio="xMidYMid meet">

<g transform="translate(0.000000,699.000000) scale(0.100000,-0.100000)"
fill="#000000" stroke="none">
<path d="M1360 4733 c-24 -10 -94 -66 -110 -88 -53 -71 -74 -160 -58 -245 12
-67 2 -47 202 -383 91 -154 166 -280 166 -282 0 -2 14 -24 30 -48 17 -25 30
-48 30 -51 0 -4 23 -40 50 -81 28 -41 50 -76 50 -78 0 -3 39 -69 86 -148 47
-79 95 -162 106 -184 23 -44 88 -158 218 -375 48 -80 160 -269 250 -420 302
-510 272 -465 358 -536 212 -175 533 -160 727 32 40 40 86 102 131 179 38 65
76 130 84 144 9 14 27 44 41 66 14 22 37 60 51 85 29 52 188 321 291 490 38
63 81 135 94 160 14 25 32 52 39 61 8 8 14 18 14 22 0 7 257 439 305 512 18
28 42 66 52 85 11 19 77 132 148 250 190 321 295 500 323 550 14 25 29 51 35
58 6 8 5 12 -4 12 -16 0 -278 18 -364 24 -33 3 -148 10 -255 16 -107 6 -260
16 -340 21 -189 14 -543 32 -597 31 -37 -1 -60 -15 -225 -138 -100 -75 -188
-139 -195 -141 -10 -4 -151 28 -248 57 -16 5 -82 23 -145 41 -63 17 -135 37
-160 44 -25 7 -74 20 -110 30 -36 10 -83 23 -105 30 -22 7 -69 21 -105 30 -36
10 -85 23 -110 31 -25 7 -79 23 -120 34 -41 12 -84 26 -95 30 -11 5 -31 11
-45 13 -14 3 -68 17 -120 32 -75 21 -123 28 -225 31 -71 2 -137 1 -145 -3z"/>
<path d="M11175 4706 c-17 -7 -36 -25 -43 -40 -9 -21 -12 -344 -12 -1434 0
-1318 2 -1408 18 -1428 34 -42 49 -44 372 -44 334 0 352 3 378 52 9 17 12 201
15 708 3 673 3 686 24 745 26 71 73 119 134 135 57 16 122 5 159 -26 60 -51
60 -55 60 -821 0 -760 -1 -746 59 -777 25 -14 78 -16 341 -16 338 0 352 2 380
56 21 39 22 1597 1 1719 -44 258 -143 413 -314 494 -104 49 -173 63 -306 63
-145 1 -253 -22 -360 -76 -53 -28 -142 -92 -154 -113 -23 -38 -27 21 -27 375
-1 353 -2 378 -19 399 -11 13 -31 27 -46 33 -42 16 -622 12 -660 -4z"/>
<path d="M5810 4094 c-357 -24 -577 -129 -742 -354 -41 -55 -113 -206 -137
-286 -46 -154 -61 -290 -61 -542 0 -351 37 -544 143 -747 76 -146 204 -273
344 -340 168 -81 270 -100 533 -100 263 0 363 19 536 101 215 102 368 308 440
593 44 170 57 313 51 551 -7 302 -41 469 -133 651 -152 304 -415 453 -829 471
-55 3 -120 3 -145 2z m193 -657 c35 -26 69 -87 87 -152 31 -114 31 -613 0
-743 -15 -63 -49 -130 -78 -152 -54 -43 -160 -50 -221 -14 -86 51 -120 201
-121 530 0 439 57 574 238 561 46 -4 70 -11 95 -30z"/>
<path d="M8025 4093 c-346 -19 -593 -139 -743 -359 -48 -72 -102 -180 -121
-244 -7 -25 -17 -56 -22 -70 -5 -14 -16 -65 -24 -115 -38 -229 -44 -429 -20
-641 14 -115 22 -164 52 -294 14 -60 85 -214 128 -279 172 -257 430 -371 837
-371 219 0 386 33 529 105 86 43 122 68 186 133 210 213 303 505 303 953 0
449 -87 722 -301 940 -115 118 -266 190 -464 223 -94 15 -255 24 -340 19z
m198 -657 c41 -31 69 -86 88 -171 20 -85 19 -602 0 -702 -25 -131 -74 -193
-161 -208 -92 -16 -166 18 -203 92 -45 89 -52 156 -52 463 0 305 8 374 51 461
37 74 86 100 181 95 48 -3 69 -9 96 -30z"/>
<path d="M10030 4093 c-523 -22 -770 -244 -770 -691 0 -280 88 -467 278 -595
75 -51 147 -86 342 -167 69 -29 145 -63 170 -76 127 -64 145 -150 42 -197 -38
-17 -72 -22 -176 -25 -146 -5 -267 8 -404 44 -105 28 -147 23 -176 -20 -15
-24 -40 -203 -52 -383 -8 -109 3 -134 70 -164 225 -99 755 -131 1061 -63 265
59 431 204 495 435 29 105 29 333 0 439 -67 248 -195 362 -608 541 -158 69
-235 116 -257 160 -47 90 49 159 225 159 72 0 300 -33 344 -49 86 -33 157 5
169 89 11 76 40 354 39 374 -3 69 -61 109 -199 140 -151 34 -424 57 -593 49z"/>
</g>
</svg>
