<svg xmlns="http://www.w3.org/2000/svg" xmlns:xlink="http://www.w3.org/1999/xlink" width="564" height="520" viewBox="0 0 564 520">
  <defs>
    <linearGradient id="linear-gradient" x1="0.5" x2="0.613" y2="0.664" gradientUnits="objectBoundingBox">
      <stop offset="0" stop-color="#ffa20f"/>
      <stop offset="1" stop-color="#ff5920"/>
    </linearGradient>
  </defs>
  <g id="Group_1" data-name="Group 1" transform="translate(0.151 0.448)">
    <rect id="Rectangle_3" data-name="Rectangle 3" width="564" height="520" transform="translate(-0.15 -0.448)" fill="none"/>
    <path id="Path_1" data-name="Path 1" d="M139.885,17.49C144.65-3,160.249-10.41,173.232,8.128L305.457,385.51c12.116,38.556-17.533,46.2-40.442,46.158l-232.961,5.98c-51.234-6.8-40.981-37.433-27.314-49.188l133.5-76.246Z" transform="matrix(0.515, 0.857, -0.857, 0.515, 385.483, 21.201)" fill="url(#linear-gradient)"/>
  </g>
  <ellipse id="Ellipse_1" data-name="Ellipse 1" cx="22.5" cy="22" rx="22.5" ry="22" transform="translate(108 124)" fill="#ff5920"/>
  <g id="Ellipse_2" data-name="Ellipse 2" transform="translate(430 323)" fill="none" stroke="#ff9611" stroke-width="5">
    <ellipse cx="17" cy="17.5" rx="17" ry="17.5" stroke="none"/>
    <ellipse cx="17" cy="17.5" rx="14.5" ry="15" fill="none"/>
  </g>
  <path id="Polygon_1" data-name="Polygon 1" d="M13.493,6.4a4,4,0,0,1,7.014,0L30.752,25.077A4,4,0,0,1,27.244,31H6.756a4,4,0,0,1-3.507-5.923Z" transform="matrix(0.788, 0.616, -0.616, 0.788, 313.505, 474.639)" fill="#ff7719"/>
</svg>
