<svg width="71" height="79" fill="none" xmlns="http://www.w3.org/2000/svg"><path fill-rule="evenodd" clip-rule="evenodd" d="M16.602 19.821h47.21l6.63 58.991H10.03l6.573-58.991z" fill="url(#LogoOnBag_svg__paint0_linear)"></path><path fill="#A55735" d="M24.591 24.858h4.483v1.633h-4.483zM52.684 24.858h4.483v1.633h-4.483z"></path><path fill-rule="evenodd" clip-rule="evenodd" d="M10.029 78.813l.522-4.752h59.357l.534 4.751H10.03z" fill="#B24E29"></path><path fill-rule="evenodd" clip-rule="evenodd" d="M14.368 74.87s3.243-43.558 4.082-49.501c.15-1.066.16-2.783 1.707-3.678 1.972-1.14 34.113-1.315 34.113-1.315l.178-.555H16.659l-5.953 55.05h3.662z" fill="url(#LogoOnBag_svg__paint1_radial)"></path><path d="M55.835 15.062h-1.887c0-7.277-5.864-13.174-13.096-13.174-7.23 0-13.095 5.897-13.095 13.174v9.95h-1.888v-9.95C25.87 6.744 32.576 0 40.852 0s14.983 6.744 14.983 15.062z" fill="#D5D5D5"></path><path d="M53.948 14.866h1.888v10.146h-1.888V14.866z" fill="#D5D5D5"></path><g filter="url(#LogoOnBag_svg__filter0_d)"><path fill-rule="evenodd" clip-rule="evenodd" d="M49.723 48.59c.14-.827-.022-1.461-.434-1.795-.621-.5-1.552-.77-3.78-.77h-4.168a.423.423 0 01-.332-.419v-5.062c0-.202.105-.39.275-.49a.534.534 0 01.55 0c.17.1.274.288.274.49v3.725c-.002.168.1.318.254.372 1.332.375 8.047.1 7.941-1.183-.574-5.33-4.847-9.475-10.038-9.475a9.675 9.675 0 00-4.553 1.138c-3.432 1.84-5.575 5.513-5.545 9.507.043 2.94 1.88 8.158 3.004 8.934.518.356 1.2.224 4.251.224h3.308c.065 0 .41.097.41.433v3.847c0 .203-.105.39-.275.491a.534.534 0 01-.55 0 .571.571 0 01-.274-.491s.028-1.545.028-2.119c0-.135 0-.362-.36-.535-1.216-.57-5.164-.228-5.384.4-.087.244.354 1.18 1.033 2.379a83.82 83.82 0 004.857 7.206l.062.051c.295-.394 8.199-9.504 9.446-16.858z" fill="#fff"></path></g><path d="M57.557 0l.83 2.242 2.241.83-2.242.829-.83 2.241-.828-2.241-2.242-.83 2.242-.83L57.556 0zM5.04 61.932l1.362 3.679 3.679 1.361-3.68 1.362-1.36 3.679-1.362-3.68L0 66.974l3.68-1.362 1.36-3.68z" fill="#E5744F"></path><defs><radialGradient id="LogoOnBag_svg__paint1_radial" cx="0" cy="0" r="1" gradientUnits="userSpaceOnUse" gradientTransform="rotate(19.75 -83.18 38.502) scale(39.4227 47.5252)"><stop stop-color="#FFC89F"></stop><stop offset="1" stop-color="#FF9C6A" stop-opacity="0.01"></stop></radialGradient><linearGradient id="LogoOnBag_svg__paint0_linear" x1="-18.936" y1="37.675" x2="32.438" y2="109.862" gradientUnits="userSpaceOnUse"><stop stop-color="#FF9962"></stop><stop offset="1" stop-color="#CF5029"></stop></linearGradient><filter id="LogoOnBag_svg__filter0_d" x="25.195" y="29.012" width="30.08" height="41.408" filterUnits="userSpaceOnUse" color-interpolation-filters="sRGB"><feFlood flood-opacity="0" result="BackgroundImageFix"></feFlood><feColorMatrix in="SourceAlpha" values="0 0 0 0 0 0 0 0 0 0 0 0 0 0 0 0 0 0 127 0"></feColorMatrix><feOffset></feOffset><feGaussianBlur stdDeviation="2.486"></feGaussianBlur><feColorMatrix values="0 0 0 0 0.501169 0 0 0 0 0.17391 0 0 0 0 0.0734135 0 0 0 0.558129 0"></feColorMatrix><feBlend in2="BackgroundImageFix" result="effect1_dropShadow"></feBlend><feBlend in="SourceGraphic" in2="effect1_dropShadow" result="shape"></feBlend></filter></defs></svg>